<?xml version="1.0" encoding="utf-8"?>
<!-- Generator: Adobe Illustrator 24.3.0, SVG Export Plug-In . SVG Version: 6.00 Build 0)  -->
<svg version="1.1" id="Layer_1" xmlns="http://www.w3.org/2000/svg" xmlns:xlink="http://www.w3.org/1999/xlink" x="0px" y="0px"
	 viewBox="0 0 165.3 40" style="enable-background:new 0 0 165.3 40;" xml:space="preserve">
<style type="text/css">
	.st0{fill-rule:evenodd;clip-rule:evenodd;fill:#BF5414;}
</style>
<path id="path1" class="st0" d="M1.1,19.7V39h15.6h15.6V19.7V0.4H16.6H1.1V19.7 M30.8,19.7v17.8h-7h-7.1v-8.9c0-6.3,0-8.9-0.1-8.9
	c0,0-0.2,0.1-0.3,0.1c-0.7,0.4-1.1,0.3-2-0.2c-0.8-0.5-2.4-0.6-3.5-0.3c-0.8,0.2-0.8,0.1-0.9,2.4c-0.3,4-0.6,5.9-1.7,8.6
	c-0.7,1.8-0.6,2.1,1.1,2.1c1.2,0,1.7,0.2,2.1,0.8c0.3,0.4,0.3,0.7,0,1c-0.2,0.2-0.2,0.2-0.2,0.6c0,0.5,0,0.7-0.3,0.9
	c-0.2,0.2-5,0.1-5.3,0C5.1,35.6,5,35,5.4,34.4c0.2-0.2,0.2-0.4,0.2-0.6c0-0.3,0.1-0.5,0.5-1.1c0.2-0.3,0.2-0.4,0.2-0.9
	c0-0.3,0.1-1.1,0.2-1.7c0.4-3.2,0.2-4.9-0.5-5.7c-0.8-1-0.9-1.6-0.6-3.8c0.1-0.9,0.2-1.5,0.2-2.2c0-0.7,0-1.1,0.2-1.6
	c0.3-1.4,0.4-1.6,1-2.9c0.9-1.9,0.9-2.4,0-3.4c-1-1-1.3-1.8-1.3-2.8c0-3.2,3.8-4.6,5.2-1.9c0.8,1.5,0.5,3.2-0.8,4.6
	c-1,1.1-1.1,1.5-0.5,2.9c0.7,1.5,0.9,2.3,0.8,3.4c0,0.7,0.1,0.9,1,1.2c0.9,0.4,1.4,0.5,2.2,0.5c0.8,0,0.8,0,2.1-0.6
	c0.4-0.2,0.8-0.3,0.9-0.3c0.2,0,0.3,0,0.3-0.1c0-0.1,0.1,0,0.4,0.2c0.7,0.7,1.5,0.7,3.5,0.1c0.8-0.2,1-0.6,0.9-1.5
	c0-0.3,0-0.6,0.1-1c0.1-0.7,0.2-1,0.9-2.5c0.2-0.5,0.2-1.4,0-1.4c0,0-0.1,0-0.1-0.1c0,0-0.1-0.1-0.1-0.2c-0.3-0.3-1.1-1.3-1.1-1.3
	c0,0,0-0.1-0.1-0.2c-0.4-0.5-0.6-2.3-0.3-3.2c0.2-0.7,0.7-1.5,0.9-1.6c0,0,0.1-0.1,0.1-0.1c0.5-0.5,2-0.6,2.9-0.3
	c1.5,0.7,2.2,2.2,1.8,4.3c-0.2,1-0.4,1.3-1.4,2.1c-0.7,0.6-0.8,0.8-0.5,1.7c0.2,0.6,0.2,0.7,0.7,1.4c0.5,0.6,0.7,1.2,0.9,2.6
	c0.2,0.8,0.2,1,0.1,1.6c-0.1,0.5,0,1.5,0.2,2c0.5,1.6,0.4,3-0.4,4.1c-0.8,1.1-0.9,2.8-0.4,6.5c0.1,0.5,0.1,1,0.1,1.2
	c0,0.2,0,0.3,0.2,0.6c0.2,0.3,0.5,0.9,0.5,1.1c0,0,0.1,0.3,0.3,0.6c0.4,0.7,0.3,1.4-0.1,1.7c-0.2,0.2-2.2,0.3-4.1,0.2
	C20.6,36,21,36,23.7,36c2.9,0,2.9,0,3.1-0.5c0.2-0.4,0.1-0.7-0.3-1.3c-0.2-0.2-0.2-0.4-0.2-0.5c0-0.3-0.1-0.5-0.4-0.9
	c-0.2-0.3-0.2-0.3-0.6-3.5c-0.2-2.2,0-4.5,0.4-4.8c0.2-0.2,0.6-1,0.8-1.5c0.2-0.7,0.1-2.2-0.2-2.9c-0.1-0.3-0.1-0.4-0.1-1.6
	c0-1,0-1.4-0.1-1.8c-0.1-0.3-0.2-0.8-0.2-1.1c-0.1-0.6-0.3-1-0.4-1.3c0-0.1-0.1-0.2-0.2-0.3c-0.1-0.1-0.2-0.4-0.4-0.6
	c-0.9-1.1-0.8-1.7,0.3-2.8c0.8-0.8,0.9-1,1.2-1.5c0.3-0.8,0.2-2.9-0.3-3.3c0,0-0.1-0.1-0.1-0.1c0-0.1-0.6-0.7-0.9-0.9
	c-2-1.3-4.1,0.1-4.1,2.8c0,1,0.4,2.2,0.7,2.3c0,0,0.1,0,0.1,0.1c0,0,0.2,0.3,0.4,0.5c0.8,0.8,1.1,1.7,0.7,2.4
	c-0.2,0.5-0.6,1.3-0.6,1.4c0,0-0.1,0.2-0.1,0.3c-0.2,0.4-0.3,1.3-0.3,1.9c0,0.6,0,0.8-0.2,1c-0.1,0.1-0.7,0.4-0.8,0.4
	c0,0-0.2,0.1-0.3,0.1c-0.9,0.5-2.3,0.5-3.2,0c-0.6-0.3-0.6-0.3-0.5,0.8l0,0.9l0.2,0c0.1,0,0.3-0.1,0.5-0.2c0.4-0.2,0.6-0.3,0.9-0.1
	c0.1,0.1,0.3,0.1,0.4,0.1c0.1,0,0.4,0,0.7,0.1c0.4,0.1,0.9,0.2,2,0.3c0.3,0,0.6,0.1,0.6,0.1c0.1,0.1,0.2,1.1,0.3,2.6
	c0,0.7,0.1,1.5,0.1,1.7c0,0.2,0.1,0.6,0.1,1c0.1,0.9,0.4,2.2,0.6,3.2c0.2,0.7,0.4,1.5,0.5,1.6c0.1,0.2,0.1,0.4,0,0.2
	c-0.2-0.3-1-2.8-1.2-3.8C22.2,25,22,22.6,22,22c0-0.2,0-0.7-0.1-1.1l-0.1-0.7l-0.3-0.1c-0.2,0-0.5-0.1-0.6-0.2
	c-0.2,0-0.5-0.1-0.8-0.2c-0.4-0.1-0.7-0.1-1.6-0.1l-1.1,0L17,19.9c-0.4,0.3-0.3,0.4,0.2,0.2c0.7-0.2,2-0.1,3.9,0.4l0.3,0.1l0.1,1.1
	c0.1,0.6,0.2,1.5,0.2,1.9c0.2,2.9,0.5,4.2,1.2,5.9c0.6,1.4,0.7,1.9,0.6,2c0,0.1-0.3,0.1-1,0.1c-1.8,0.1-2.7,0.8-2.6,2.2
	c0.1,0.7,0.1,0.8,0,1.1c-0.1,0.5,0.3,1,0.9,1.2c0.3,0.1,5.3,0.1,5.8,0c0.9-0.2,1.2-1.2,0.7-2.3c-0.1-0.2-0.2-0.5-0.3-0.7
	c-0.2-0.4-0.5-1.1-0.6-1.1c-0.1,0-0.2-0.5-0.3-1.3c0-0.5-0.1-1.2-0.2-1.6c-0.4-2.2-0.1-4.3,0.6-5.2c0.1-0.2,0.2-0.3,0.2-0.4
	c0,0,0-0.2,0.1-0.3c0.2-0.5,0.3-2.5,0-3.2c-0.3-0.9-0.4-1.1-0.4-2.3c0-1.2-0.1-1.8-0.4-2.7c-0.1-0.2-0.1-0.4-0.1-0.5
	c0-0.2-0.5-1.1-0.6-1.2c-0.2-0.2-0.6-1-0.7-1.2c-0.1-0.6,0-0.7,0.5-1.1c1.1-0.8,1.5-1.8,1.5-3.5c0-1.1-0.4-2.5-0.6-2.5
	c0,0-0.1,0-0.1-0.1c0-0.1-0.5-0.6-0.7-0.7c-1.2-0.7-2.4-0.8-3.5-0.3c-0.3,0.2-0.9,0.7-0.9,0.8c0,0,0,0.1-0.1,0.1
	c-0.2,0-0.6,1.1-0.7,1.9c-0.3,1.7,0.1,2.8,1.2,4c0.9,0.9,0.9,1,0.3,2.3c-0.4,0.8-0.4,0.9-0.6,1.4c-0.1,0.4-0.2,0.6-0.2,1.3
	c0,1.1-0.1,1.2-1.3,1.5C18.3,18,18,18,17.1,17.3L16.7,17l-0.4,0c-0.5,0-0.8,0.2-1.2,0.5c-0.6,0.6-1.5,0.6-2.8,0.3
	c-1.5-0.4-1.7-0.5-1.7-1.9c0-1.1-0.1-1.4-0.9-3.1c-0.4-0.9-0.3-1.3,0.5-2.1c1.1-1.2,1.4-1.8,1.4-3c0-2.3-1.5-3.8-3.5-3.6
	c-1.5,0.2-2.4,1.2-2.6,3c-0.1,1.2,0.2,2.2,1.4,3.7c0.7,0.9,0.8,1.4,0.2,2.4c-1,1.6-1.4,3.1-1.6,6.4c0,0.4-0.1,1-0.2,1.4
	c-0.3,1.5-0.1,2.5,0.5,3.3c0.9,1.3,1,2.6,0.6,5.7C6.1,30.8,6,31.6,6,31.9c0,0.4-0.1,0.5-0.2,0.6c-0.2,0.2-0.4,0.6-0.6,1.1
	c-0.1,0.2-0.2,0.5-0.3,0.7c-0.3,0.6-0.2,1.3,0.2,1.6c0.3,0.2,5.2,0.4,5.7,0.2c0.4-0.1,0.6-0.4,0.5-0.9c0-0.4,0-0.5,0.1-0.6
	c0.3-0.4,0.1-1.3-0.4-1.7c-0.5-0.4-1-0.6-2.2-0.6c-0.8,0-1.1-0.1-1.1-0.4c0-0.2,0.3-1.2,0.5-1.6c0.4-0.9,0.8-2.1,1.1-3.5
	c0.1-0.6,0.3-2,0.4-3c0-0.5,0.1-1.3,0.2-1.8c0-0.5,0.1-1.2,0.1-1.5c0-0.5,0.1-0.6,0.2-0.6c0.1,0,0.4-0.1,0.6-0.2
	c1.1-0.4,2-0.3,3,0.2c1,0.5,1.5,0.6,2.1,0.4c0.3-0.1,0.3,0,0.1,0.1c-0.5,0.4-1,0.3-1.9,0c-1.1-0.5-1.9-0.6-2.9-0.4
	c-1,0.2-1,0.1-1.2,3.6c-0.2,2.5-0.5,4.1-1.3,6.1c-0.9,2.2-0.9,2.1,0.6,2.1c1.1,0,1.4,0.1,1.9,0.6c0.6,0.5,0.8,1.5,0.5,2.2
	c-0.1,0.2-0.1,0.3-0.1,0.7c0.1,1.1-0.8,1.3-5,1.2c-2.1-0.1-2.4-0.2-2.5-1.3c0-0.4-0.1-0.3,0.7-2.1c0.1-0.2,0.3-0.5,0.4-0.7
	c0.2-0.3,0.2-0.3,0.3-1c0-0.4,0.1-1.2,0.2-1.8c0.3-2.7,0.2-4.1-0.6-5.1c-0.6-0.8-0.8-2-0.5-3.7C5,19.7,5.1,18.9,5,18.7
	c-0.2-1,0.7-4.3,1.4-5.4C7,12.4,7.1,12,6.7,11.4c-0.1-0.2-0.4-0.6-0.6-0.9C4.1,7.7,4.8,4.8,7.5,4.1c2.3-0.5,4.1,1,4.1,3.6
	c0,1.4-0.3,2.1-1.5,3.6c-0.6,0.7-0.6,0.8,0,2c0.6,1.4,0.7,1.8,0.8,2.6c0,1.2,0,1.2,1.1,1.5c1.2,0.4,2.2,0.3,2.9-0.3
	c0.6-0.5,1.2-0.6,1.6-0.4c0.1,0,0.2,0.1,0.2,0.1c0,0,0-3.4,0-7.5V1.9h7.1h7V19.7 M106.2,4.6c-0.8,0.1-1.6,0.3-2,0.5
	c-0.1,0-0.2,0.1-0.3,0.2c-0.9,0.4-1.8,1.9-2,3.3c-0.1,0.9-0.1,12.3,0,13.3c0.2,1.2,0.7,2.3,1.3,2.9c0,0,0.1,0.1,0.2,0.2
	c0.2,0.2,0.6,0.4,0.6,0.4c0,0,0.1,0,0.2,0.1c1,0.6,3.8,0.6,5.1,0c0.6-0.3,1.1-0.6,1.4-1.1c0.5-0.6,0.7-1.1,0.9-2l0.1-0.6v-6.5V8.8
	l-0.2-0.7c-0.1-0.4-0.2-0.7-0.2-0.8c0-0.1-0.1-0.2-0.2-0.3c-0.1-0.2-0.1-0.3-0.4-0.7c-0.1-0.2-0.5-0.5-0.7-0.8
	C109.4,4.9,107.4,4.5,106.2,4.6 M34.1,15.3v10.4h1.7h1.7v-4.6v-4.6h1.7h1.7v4.6v4.6h1.7h1.7V15.3V4.9h-1.7h-1.7v4.2v4.2h-1.7h-1.7
	V9.2V4.9h-1.7h-1.7V15.3 M46.5,15.3v10.4H51h4.5v-1.5v-1.5h-2.8h-2.8v-3.1v-3.1h2.2h2.2v-1.5v-1.5h-2.2h-2.2v-2.7V8h2.8h2.8V6.5V4.9
	H51h-4.5V15.3 M57.3,15.3v10.4h4.5h4.5l0-1.5l0-1.5l-2.8,0l-2.8,0v-3.1v-3.1h2.2h2.2v-1.5v-1.5h-2.2h-2.2v-2.7V8h2.8h2.8V6.5V4.9
	h-4.5h-4.5V15.3 M68,10c0,2.8,0,7.5,0,10.4l0,5.3h1.6h1.6v-4.4v-4.4l0.9,0c2,0.1,2.1,0.2,2.2,5.1c0,1.6,0.1,2.9,0.1,3
	c0,0.1,0.1,0.3,0.1,0.5l0,0.2h1.7c1,0,1.7,0,1.7,0c0,0-0.1-0.2-0.1-0.4c-0.1-0.3-0.1-0.5-0.2-3.6c0-3.7-0.1-4.4-0.6-5.3
	c-0.3-0.5-1.1-1.2-1.4-1.2c-0.1,0,0-0.1,0.2-0.2c1.3-0.8,1.8-1.9,1.8-4.6c0-2.4-0.3-3.4-1.2-4.3c-1-1-1.6-1.1-5.6-1.2l-2.9,0V10
	 M79.9,12.4c0,4.1,0,8.8,0,10.4l0,2.9h1.7h1.7V15.3V4.9h-1.7h-1.7L79.9,12.4 M90.3,15.3v10.4H92h1.7v-3.3v-3.3l0.5-1
	c0.3-0.6,0.5-1,0.5-1.1c0,0,0-0.1,0.1-0.2c0.1-0.1,0.1-0.1,0.5,1.2c0.1,0.2,0.2,0.6,0.2,0.8c0.1,0.2,0.2,0.6,0.3,0.9
	c0.1,0.3,0.2,0.6,0.3,0.8c0.1,0.2,0.2,0.6,0.3,0.8c0.1,0.3,0.2,0.6,0.2,0.8c0.1,0.2,0.2,0.6,0.3,0.8c0.1,0.3,0.2,0.7,0.3,0.8
	c0.1,0.3,0.2,0.6,0.4,1.5l0.1,0.3h1.8c1,0,1.8,0,1.8,0c0,0-0.2-0.7-0.3-1c0-0.2-0.2-0.5-0.2-0.8c-0.1-0.3-0.2-0.6-0.3-0.8
	c-0.1-0.2-0.2-0.6-0.3-0.8c-0.1-0.3-0.2-0.6-0.2-0.8c-0.1-0.2-0.2-0.5-0.2-0.8c-0.2-0.8-0.4-1.4-0.5-1.7c-0.1-0.2-0.2-0.5-0.2-0.8
	c-0.2-0.8-0.4-1.4-0.5-1.7c-0.1-0.2-0.2-0.6-0.2-0.8c-0.1-0.3-0.2-0.7-0.3-0.9c-0.1-0.5-0.3-0.9-0.5-1.6l-0.1-0.4L98,11
	c0.4-0.9,1.2-2.3,1.6-3.1c1.2-2.4,1.5-2.9,1.5-3c0-0.1-0.5-0.1-1.7-0.1h-1.7l-0.1,0.3c-0.1,0.1-0.3,0.6-0.5,1.1
	c-0.2,0.5-0.5,1-0.6,1.3c-0.1,0.3-0.4,0.8-0.5,1.1c-0.6,1.2-0.8,1.8-0.9,2c0,0.1-0.2,0.4-0.4,0.8c-0.2,0.4-0.5,1-0.6,1.3l-0.3,0.5
	l0-4.2l0-4.2H92h-1.7V15.3 M113.9,15.3v10.4h1.5h1.5l0-7.4c0-4.8,0-7.3,0.1-7.2c0,0.1,0.1,0.4,0.2,0.7c0.1,0.3,0.2,0.7,0.2,0.9
	c0.1,0.2,0.2,0.7,0.3,1c0.1,0.3,0.2,0.7,0.3,1c0.1,0.2,0.2,0.7,0.3,1c0.1,0.3,0.2,0.7,0.3,1c0.1,0.2,0.2,0.7,0.3,1
	c0.1,0.3,0.2,0.7,0.2,1c0.1,0.2,0.2,0.7,0.2,1c0.2,0.7,0.4,1.4,0.5,1.9c0.1,0.2,0.1,0.5,0.1,0.5s0.1,0.3,0.1,0.5
	c0.1,0.2,0.2,0.7,0.3,0.9c0.1,0.3,0.2,0.7,0.3,1c0.1,0.2,0.2,0.6,0.2,0.8l0.1,0.3l1.7,0l1.7,0V15.3V4.9h-1.5h-1.5l0,6
	c0,3.3,0,6,0,5.9c0-0.1-0.1-0.4-0.2-0.6c-0.1-0.3-0.2-0.7-0.2-0.9c-0.1-0.2-0.2-0.7-0.2-0.9c-0.1-0.3-0.2-0.7-0.3-1
	c-0.1-0.3-0.2-0.8-0.3-1c-0.2-0.7-0.3-1.3-0.5-1.9c-0.1-0.3-0.2-0.7-0.3-1c-0.1-0.2-0.2-0.7-0.2-0.9c-0.1-0.3-0.2-0.7-0.3-1
	c-0.1-0.3-0.2-0.7-0.3-0.9c-0.1-0.2-0.1-0.5-0.1-0.5c0,0-0.1-0.3-0.1-0.5l-0.1-0.5H116h-2.1V15.3 M126.6,15.3v10.4l2.5,0
	c3.7,0,4.3-0.1,5.2-0.5c0.7-0.3,1.5-1,1.8-1.5c0.6-1.2,0.7-1.5,0.7-3.9c0-2.5-0.2-3.5-0.9-4.2c-0.1-0.1-0.1-0.1-0.1-0.2
	c0-0.1-0.6-0.5-0.9-0.7l-0.3-0.2l0.3-0.2c0.9-0.5,1.4-1.4,1.6-2.6c0.2-1.2,0.1-3.8-0.2-4.4c-0.1-0.1-0.1-0.2-0.1-0.3
	c0-0.3-0.7-1.1-1.2-1.5c-1-0.7-1.5-0.8-5.2-0.8l-3,0V15.3 M140.9,5.7c-0.1,0.4-0.2,1.1-0.3,1.6c-0.1,0.4-0.2,1.1-0.3,1.5
	s-0.2,1.1-0.3,1.5c-0.1,0.5-0.2,1.1-0.3,1.5c-0.1,0.8-0.3,1.9-0.5,3.1c-0.1,0.4-0.2,1.1-0.3,1.5c-0.1,0.4-0.2,1.1-0.3,1.5
	c-0.2,1-0.3,2.1-0.5,3.1c-0.1,0.4-0.2,1.1-0.3,1.6c-0.1,0.5-0.2,1.1-0.3,1.5c-0.1,0.4-0.1,0.9-0.2,1.1l0,0.4h1.6h1.6l0.1-0.8
	c0.1-0.9,0.4-2.5,0.4-3l0-0.3h1.8h1.8l0,0.3c0.1,0.5,0.3,2,0.4,3l0.1,0.8h1.7h1.7l0-0.3c0-0.2-0.1-0.7-0.2-1.1
	c-0.1-0.8-0.3-1.8-0.5-3c-0.1-0.4-0.2-1.1-0.3-1.6c-0.1-0.4-0.2-1.1-0.3-1.6c-0.1-0.8-0.3-1.7-0.5-3.1c-0.1-0.4-0.2-1.1-0.3-1.5
	c-0.1-0.4-0.2-1.1-0.3-1.5c-0.1-0.4-0.2-1.1-0.2-1.5c-0.1-0.7-0.2-1.2-0.5-3.2c-0.1-0.4-0.2-1.1-0.2-1.5c-0.1-0.4-0.1-0.8-0.1-0.8
	V4.9h-2.3l-2.3,0L140.9,5.7 M107.4,7.8c0.5,0.1,0.8,0.5,1,1c0.2,0.6,0.2,12.4,0,13c-0.5,1.4-2.3,1.6-2.9,0.2l-0.1-0.3l0-6.4l0-6.4
	l0.2-0.3C105.8,7.8,106.6,7.5,107.4,7.8 M73.3,8.1c0.8,0.2,1,0.7,1,2.8l0,1.6l-0.2,0.4c-0.3,0.7-0.8,0.9-2,0.9l-0.8,0v-2.9V8h0.8
	C72.7,8,73.1,8,73.3,8.1 M131.9,8.1c0.4,0.1,0.7,0.3,0.9,0.7l0.2,0.3v1.5v1.5l-0.2,0.3c-0.3,0.6-0.8,0.9-2,0.9l-0.8,0v-2.7V8h0.8
	C131.3,8,131.8,8,131.9,8.1 M143.4,10.7c0.1,0.4,0.2,1.2,0.3,1.8c0.1,0.5,0.2,1.3,0.3,1.8s0.2,1.3,0.3,1.8c0.1,0.5,0.2,1.3,0.3,1.7
	c0.1,0.4,0.1,0.8,0.1,0.9c0,0.1,0,0.1-1.4,0.1h-1.4v-0.1c0-0.1,0.1-0.5,0.1-0.9c0.1-0.4,0.2-1.2,0.3-1.8c0.1-0.5,0.2-1.4,0.3-1.8
	c0.1-0.5,0.2-1.3,0.3-1.8c0.1-0.5,0.2-1.3,0.3-1.8c0.1-0.4,0.1-0.9,0.1-1c0-0.4,0.1-0.5,0.1-0.1C143.2,9.7,143.3,10.2,143.4,10.7
	 M132.2,16.6c0.9,0.4,1.1,0.9,1.1,3.2c0,2.6-0.2,2.9-2.2,2.9H130v-3.1v-3.1h0.9C131.8,16.4,131.9,16.4,132.2,16.6 M24.1,31.1
	c0.4,1.2,0.3,1.3-1.2,1.4c-1.9,0.1-2.5,0.5-2.2,1.7c0.1,0.6,0.1,0.7,0,0.9c-0.1,0.2-0.1,0.4,0.2,0.6c0.3,0.2,0.3,0.3,0,0.1
	c-0.4-0.2-0.5-0.3-0.4-0.7c0.1-0.2,0.1-0.5,0-0.9c-0.1-1.5,0.4-1.9,2.3-2C24.2,32.2,24.2,32.2,24.1,31.1c-0.1-0.2-0.2-0.5-0.3-0.5
	c0-0.1-0.1-0.2-0.1-0.2C23.7,30.2,23.9,30.6,24.1,31.1 M53.5,31.7c-0.5,0.2-0.8,0.6-0.9,1.2c-0.1,0.6-0.1,4.6,0.1,5
	c0.3,0.8,1.8,1.3,2.5,0.8c0.2-0.2,0.5-0.4,0.5-0.5c0,0,0-0.2,0.1-0.3c0.1-0.2,0.1-0.4,0.1-1l0-0.8h-0.6h-0.6v0.7c0,0.8-0.1,1-0.5,1
	c-0.5,0-0.5-0.2-0.5-2.5c0-2.4,0-2.6,0.5-2.6c0.4,0,0.5,0.2,0.5,0.9v0.6h0.6H56l0-0.7c0-0.8-0.2-1.3-0.7-1.6
	C55,31.7,53.9,31.6,53.5,31.7 M82.3,31.7c-0.9,0.2-1,0.7-1,3.5c0,2.2,0,2.6,0.3,3c0.6,0.9,2.4,0.8,2.9-0.1l0.2-0.3v-2.5v-2.5
	l-0.2-0.3C84.1,31.8,83.2,31.5,82.3,31.7 M94.4,31.7c-0.3,0-0.7,0.5-0.8,0.8c-0.1,0.3-0.1,0.3-0.1,2.7s0,2.4,0.1,2.7
	c0.3,0.7,0.8,0.9,1.9,0.8c1-0.1,1.3-0.5,1.4-1.9l0-0.9h-0.6h-0.6v0.7c0,0.9-0.3,1.3-0.8,0.9l-0.1-0.1v-2.3V33l0.1-0.1
	c0.4-0.4,0.8,0,0.8,0.8v0.5h0.6h0.6l0-0.8C96.7,32,96,31.4,94.4,31.7 M107.5,31.7c-0.3,0.1-0.7,0.4-0.9,0.9c-0.2,0.4-0.2,4.8,0,5.3
	c0.1,0.4,0.5,0.8,0.8,0.9c0.7,0.2,2.1-0.1,2.1-0.4c0,0,0-0.1,0.1-0.1c0.2-0.1,0.3-0.6,0.3-1.4l0-0.8h-0.6h-0.6l0,0.7
	c0,0.8-0.1,1-0.5,1c-0.4,0-0.5,0-0.5-2.5V33l0.1-0.1c0.4-0.4,0.8,0,0.8,0.8v0.5h0.6h0.6l0-0.7c0-0.7-0.2-1.2-0.3-1.3
	c0,0-0.1-0.1-0.1-0.1C109.6,31.8,108.2,31.5,107.5,31.7 M111.4,31.7c-0.9,0.2-1,0.7-1,3.5c0,3.2,0.2,3.6,1.8,3.6
	c0.9,0,1.2-0.1,1.5-0.7l0.2-0.3v-2.5v-2.5l-0.2-0.3C113.3,31.8,112.3,31.5,111.4,31.7 M34.1,35.3v3.5h0.6h0.6v-1.5v-1.5h0.5h0.5v1.5
	v1.5H37h0.6v-3.5v-3.5H37h-0.6v1.4v1.4h-0.5h-0.5v-1.4v-1.4h-0.6h-0.6V35.3 M39.1,32.1c0,0.2-0.1,0.7-0.2,1.1
	c-0.2,1.1-0.3,2.1-0.5,3c-0.1,0.4-0.2,1.1-0.3,1.5c-0.1,0.4-0.1,0.8-0.1,0.9v0.2h0.6h0.6l0.1-0.5c0-0.3,0.1-0.6,0.1-0.6
	c0-0.1,0-0.1,0.6-0.1h0.6l0,0.5c0.1,0.8,0,0.8,0.7,0.8h0.6l0-0.3c0-0.2-0.1-0.6-0.2-1c-0.1-0.4-0.2-1-0.2-1.5
	c-0.2-1.4-0.4-2.3-0.5-3.1c-0.1-0.4-0.1-0.8-0.1-0.9v-0.2H40h-0.8L39.1,32.1 M42.4,35.3v3.5h0.5h0.5l0-2.4c0-2.7,0-2.6,0.3-1.2
	c0.2,1,0.4,1.4,0.5,1.9c0.2,0.8,0.4,1.4,0.4,1.6c0,0.1,0.1,0.1,0.7,0.1l0.6,0v-3.5v-3.5h-0.5h-0.5l0,1.9l0,1.9l-0.1-0.4
	c-0.1-0.5-0.3-1-0.5-1.8c-0.1-0.3-0.1-0.5-0.1-0.6c0,0-0.1-0.3-0.1-0.5l-0.1-0.5h-0.7h-0.7V35.3 M46.6,35.3v3.5h1.2
	c1.5,0,1.8-0.1,2.1-0.9c0.2-0.4,0.2-4.5,0.1-5.1c-0.3-0.9-0.6-1.1-2.2-1.1h-1.2V35.3 M50.7,35.3v3.6h0.6h0.6v-3.6v-3.6h-0.6h-0.6
	V35.3 M56.5,35.3v3.6h0.6h0.6v-1.5v-1.5H58c0.6,0,0.7,0.2,0.7,1.7c0,1.4-0.1,1.3,0.7,1.3H60l0-1.3c0-1.6-0.2-2.3-0.6-2.3
	c-0.1,0-0.1-0.1,0.1-0.2c0.4-0.3,0.6-1.4,0.4-2.3c-0.1-0.5-0.2-0.6-0.6-0.9L59,31.7h-1.2h-1.2V35.3 M61.3,32.2
	c0,0.3-0.1,0.8-0.2,1.2c-0.1,0.4-0.2,1.1-0.3,1.5c-0.4,2.6-0.5,3.4-0.6,3.6l0,0.2h0.6c0.6,0,0.6,0,0.7-0.6c0-0.2,0-0.4,0.1-0.6
	l0-0.2h0.6c0.5,0,0.6,0,0.6,0.1c0,0.1,0,0.4,0.1,0.7l0.1,0.6h0.6c0.4,0,0.6,0,0.6-0.1c0-0.1-0.1-0.5-0.3-1.6
	c-0.1-0.4-0.2-1.1-0.2-1.5c-0.3-1.7-0.4-2.5-0.5-3.2L63,31.7h-0.8h-0.8L61.3,32.2 M64.6,35.3v3.6h0.6h0.6v-1.5v-1.5h0.7h0.7v-0.5
	v-0.5h-0.7h-0.7v-1v-1h0.9h0.9v-0.5v-0.5h-1.5h-1.5V35.3 M67.9,32.2v0.5h0.6h0.6v3.1v3.1h0.6h0.6v-3.1v-3.1h0.6h0.6v-0.5v-0.5h-1.8
	h-1.8V32.2 M73.5,35.3v3.6h0.6h0.6v-1.4V36l0.5,0c1.3-0.1,1.7-0.6,1.7-2.2c0-1.2-0.1-1.5-0.7-1.9l-0.3-0.2h-1.2h-1.2V35.3
	 M77.4,35.3v3.6H78h0.6v-1.5v-1.5h0.3c0.6,0,0.7,0.2,0.7,1.6c0,1.5,0,1.4,0.7,1.4l0.6,0l0-0.2c0-0.1-0.1-0.8-0.1-1.5
	c0-1.4-0.1-1.5-0.4-1.8c-0.2-0.2-0.2-0.2-0.1-0.3c0.5-0.4,0.6-2.1,0.2-2.7c-0.3-0.5-0.5-0.6-1.9-0.6h-1.2V35.3 M85.4,35.3v3.6l1.2,0
	c2.1-0.1,2.2-0.2,2.2-3.6c0-3.4-0.1-3.5-2.2-3.5h-1.2V35.3 M89.4,34.8l0,3.1l0.2,0.3c0.1,0.2,0.3,0.3,0.3,0.4c0.1,0,0.2,0.1,0.2,0.1
	c0.1,0.1,0.2,0.1,0.9,0.1c0.9,0,1.2-0.1,1.5-0.7l0.2-0.3l0-3.1l0-3.1h-0.6h-0.6v2.8c0,3.1,0,3.1-0.4,3.2c-0.6,0.1-0.6,0-0.6-3.2
	v-2.8H90h-0.6L89.4,34.8 M97.3,35.3v3.6l1.6,0l1.6,0l0-0.5l0-0.5h-1h-1v-1v-1h0.8h0.8v-0.6v-0.6h-0.8h-0.8v-0.9v-0.9h1h1v-0.5v-0.5
	h-1.6h-1.6V35.3 M101,35.3v3.6l0.6,0l0.6,0l0-1.5l0-1.5h0.2c0.6,0,0.7,0.2,0.7,1.6c0,0.5,0,1.1,0,1.2l0,0.2h0.7c0.7,0,0.7,0,0.6-0.1
	c0-0.1-0.1-0.7-0.1-1.4c-0.1-1.5-0.2-2-0.6-2c-0.1,0,0-0.1,0.2-0.3c0.4-0.4,0.5-1.3,0.3-2.2c-0.2-0.9-0.5-1-2.1-1H101V35.3
	 M114.6,35.3v3.6h0.5h0.5l0-2.2c0-2.1,0-2.1,0.1-1.6c0.1,0.8,0.3,2.1,0.4,2.4c0,0.2,0.1,0.5,0.1,0.8l0.1,0.6h0.5h0.5l0.1-0.8
	c0.1-0.4,0.1-0.8,0.1-0.9c0-0.1,0.1-0.5,0.1-0.9c0.1-0.4,0.2-1,0.2-1.3c0.1-0.5,0.1-0.5,0.1,1.7l0,2.2h0.6h0.6v-3.6v-3.6h-0.9h-0.9
	l-0.1,0.6c-0.1,0.3-0.1,0.7-0.1,0.8c0,0.1-0.1,0.5-0.1,1c-0.1,0.4-0.2,1.1-0.2,1.4c-0.1,0.7-0.1,0.6-0.3-0.4c-0.3-2-0.3-2.4-0.4-2.8
	c-0.1-0.6,0-0.6-1-0.6h-0.8V35.3 M119.9,35.3v3.6h0.6h0.6v-1.4V36l0.5,0c1.4-0.1,1.8-0.7,1.7-2.3c-0.1-1.6-0.4-1.9-2.2-1.9h-1.2
	V35.3 M124.2,32.2c0,0.3-0.1,0.8-0.2,1.2c-0.1,0.4-0.2,1.1-0.3,1.5c-0.4,2.6-0.5,3.4-0.6,3.6l0,0.2h0.6c0.7,0,0.7,0,0.7-0.6
	c0-0.2,0-0.4,0.1-0.6l0-0.2h0.6c0.5,0,0.6,0,0.6,0.1c0,0.1,0,0.4,0.1,0.7l0.1,0.6h0.6c0.4,0,0.6,0,0.6-0.1c0-0.1-0.1-0.5-0.3-1.6
	c-0.1-0.4-0.2-1.1-0.2-1.5c-0.3-1.7-0.4-2.5-0.5-3.2l-0.1-0.7h-0.8h-0.8L124.2,32.2 M127.5,35.3v3.6h0.6h0.6l0-2.3
	c0-1.3,0-2.2,0.1-2.1c0,0.1,0.1,0.6,0.3,1c0.1,0.4,0.2,0.9,0.2,1c0,0.1,0.1,0.4,0.1,0.6c0.1,0.2,0.2,0.6,0.2,0.9s0.2,0.6,0.2,0.8
	l0.1,0.2h0.7h0.7v-3.6v-3.6h-0.6h-0.6l0,1.7c0,1.9,0,1.8-0.3,0.6c-0.1-0.2-0.1-0.5-0.1-0.5c0-0.1-0.1-0.3-0.1-0.5
	c-0.1-0.2-0.2-0.6-0.2-0.8l-0.1-0.4h-0.8h-0.8V35.3 M131.5,32c0.1,0.1,0.1,0.4,0.2,0.5c0,0.2,0.1,0.4,0.2,0.5
	c0.2,0.6,0.3,0.9,0.6,1.7c0.1,0.5,0.3,0.9,0.3,1c0,0.1,0.1,0.8,0.1,1.7v1.5h0.6h0.6l0-1.5l0-1.5l0.4-1.1c0.3-1,0.4-1.3,0.7-2
	c0.1-0.2,0.1-0.4,0.2-0.5c0-0.1,0.1-0.3,0.1-0.3l0-0.1l-0.6,0l-0.6,0l-0.1,0.3c-0.2,0.6-0.4,1.1-0.4,1.5c-0.1,0.4-0.2,0.4-0.3,0
	c-0.1-0.2-0.1-0.5-0.2-0.6c0-0.1-0.1-0.4-0.2-0.5c0-0.2-0.1-0.4-0.1-0.5l-0.1-0.2h-0.7h-0.7L131.5,32 M137.3,35.3v3.6h1.5h1.5v-0.5
	v-0.5h-0.9h-0.9v-3v-3H138h-0.6V35.3 M139.7,32.2v0.5h0.6h0.6v3.1v3.1h0.6h0.6v-3.1v-3.1h0.6h0.6v-0.5v-0.5h-1.8h-1.8V32.2
	 M143.7,35.3v3.6l1.2,0c1.4,0,1.6-0.1,2-0.7l0.2-0.3v-2.6v-2.6l-0.2-0.3c-0.4-0.6-0.5-0.6-2-0.7l-1.3,0V35.3 M48.7,33l0.2,0.2l0,2.1
	l0,2.1l-0.2,0.2c-0.1,0.2-0.2,0.2-0.5,0.2l-0.3,0v-2.5v-2.5l0.3,0C48.5,32.8,48.6,32.8,48.7,33 M58.5,33c0.1,0.1,0.2,0.2,0.2,0.6
	c0,0.8-0.1,1.1-0.7,1.1l-0.3,0v-1v-1l0.3,0C58.3,32.8,58.4,32.8,58.5,33 M75.4,32.9c0.2,0.2,0.2,1.4,0.1,1.7
	c-0.1,0.1-0.4,0.2-0.7,0.3l-0.2,0v-1.1v-1.1l0.3,0C75.2,32.8,75.4,32.8,75.4,32.9 M79.1,32.8c0.3,0.1,0.4,0.3,0.4,0.9
	c0,0.7-0.2,0.9-0.7,1l-0.3,0v-1C78.6,32.6,78.5,32.6,79.1,32.8 M83.2,32.8c0.1,0,0.2,0.1,0.2,0.2c0,0.1,0,0.1,0.1,0.1
	c0,0,0.1,0.7,0.1,2.1c0,1.3,0,2.1-0.1,2.1c0,0-0.1,0.1-0.1,0.1c0,0.3-0.5,0.4-0.7,0.2c-0.2-0.2-0.2-0.4-0.2-2.4c0-1.1,0-2.1,0.1-2.2
	C82.6,32.8,82.9,32.7,83.2,32.8 M87.1,32.8c0.4,0.1,0.4,0.2,0.4,2.5c0,2.4,0,2.5-0.8,2.5l-0.1,0v-2.5v-2.5l0.1,0
	C86.8,32.7,87,32.8,87.1,32.8 M102.7,32.8c0.3,0.1,0.4,0.4,0.4,0.9c0,0.7-0.1,0.9-0.6,1l-0.2,0v-1C102.3,32.6,102.3,32.7,102.7,32.8
	 M112.4,32.8c0.2,0.1,0.3,0.4,0.3,2.5c0,2.2,0,2.4-0.3,2.5c-0.3,0.1-0.5,0-0.6-0.2c-0.1-0.2-0.2-4.1,0-4.4
	C111.8,32.8,112.1,32.6,112.4,32.8 M121.9,33c0.1,0.1,0.2,0.2,0.2,0.8c0,0.9-0.1,1.1-0.8,1.1h-0.1v-1.1v-1.1l0.3,0
	C121.7,32.8,121.8,32.9,121.9,33 M145.5,32.8c0.4,0.1,0.4,0.2,0.4,2.5c0,2.4,0,2.5-0.8,2.5l-0.1,0v-2.5v-2.5l0.1,0
	C145.2,32.7,145.4,32.8,145.5,32.8 M40.1,34.1c0,0.2,0.1,0.7,0.2,1.1c0.1,0.4,0.1,0.8,0.1,1v0.3h-0.4h-0.4l0-0.4
	c0-0.2,0.1-0.7,0.2-1.1c0.1-0.4,0.1-1,0.2-1.2C39.9,33.3,40,33.4,40.1,34.1 M62.2,33.9c0,0.1,0.1,0.6,0.1,0.9
	c0.1,0.4,0.1,0.9,0.2,1.1l0,0.5h-0.4c-0.5,0-0.5,0.1-0.3-1.1c0.1-0.4,0.2-1.1,0.2-1.4C62.2,33.3,62.2,33.3,62.2,33.9 M125.3,34.8
	c0.1,0.4,0.1,0.9,0.2,1.1l0,0.5h-0.4h-0.4l0-0.2c0-0.1,0-0.4,0.1-0.7c0.1-0.3,0.1-0.8,0.2-1.1c0.1-0.7,0.1-1,0.2-0.6
	C125.1,34,125.2,34.5,125.3,34.8 M147.7,38.3v0.6h0.6h0.6v-0.6v-0.6h-0.6h-0.6V38.3"/>
</svg>
